# xmcd
#
# Track frame offsets:
#	150
#	12975
#	25792
#	39973
#	54147
#	66709
#	79583
#	91499
#	103575
#	116829
#	129108
#	139725
#	152178
#	163802
#	177183
#	188925
#	203700
#	215701
#	226845
#	237298
#	249899
#	262425
#	275252
#	288876
#
# Disc length: 4021 seconds
#
# Revision: 0
# Processed by: cddbd v1.5.2PL0 Copyright (c) Steve Scherf et al.
# Submitted via: audiograbber 1.83.01
#
DISCID=510fb318
DTITLE=Eddie Calvert - Cherry Pink and Apple Blossom White
DYEAR=1900
DGENRE=
TTITLE0=Oh Mein Papa
TTITLE1=Open Your Heart
TTITLE2=Ave Maria
TTITLE3=Just A Wearyin' For You
TTITLE4=Montparnasse
TTITLE5=Tenderly
TTITLE6=My Son, My Son
TTITLE7=Sherpa Song
TTITLE8=Love Is A Many Splendoured Thing
TTITLE9=Song Of The Golden Trumpet
TTITLE10=Cherry Pink And Apple Blossom White
TTITLE11=Roses Of Picardy
TTITLE12=Stranger In Paradise
TTITLE13=John And Julie
TTITLE14=Oh My Beloved Daddy
TTITLE15=The Holy City
TTITLE16=Zambesi
TTITLE17=Trumpet Tango
TTITLE18=What Is This Thing Called Love
TTITLE19=Mempries Of You
TTITLE20=Moonglow and Theme From "Picnic"
TTITLE21=If I Loved You
TTITLE22=They Didn't Believe Me
TTITLE23=Goodnight Mother, Goodnight
EXTD=
EXTT0=
EXTT1=
EXTT2=
EXTT3=
EXTT4=
EXTT5=
EXTT6=
EXTT7=
EXTT8=
EXTT9=
EXTT10=
EXTT11=
EXTT12=
EXTT13=
EXTT14=
EXTT15=
EXTT16=
EXTT17=
EXTT18=
EXTT19=
EXTT20=
EXTT21=
EXTT22=
EXTT23=
PLAYORDER=
